# xmcd
#
# Track frame offsets: 
#        150
#        18472
#        33428
#        55944
#        77105
#        89405
#        118719
#        136982
#        157531
#        199974
#        213341
#        234043
#        253683
#
# Disc length: 3776 seconds
#
# Revision: 3
# Processed by: cddbd v1.5.1PL0 Copyright (c) Steve Scherf et al.
# Submitted via: ExactAudioCopy v0.95a5
#
DISCID=a30ebe0d
DTITLE=S Vremena Na Vreme - Unplugged
DYEAR=1996
DGENRE=YU Pop Rock
TTITLE0=Kao vreme ispred Nas
TTITLE1=Vreme
TTITLE2=Tema classica
TTITLE3=Ostavljam sve i idem
TTITLE4=Suncana strana ulice
TTITLE5=Spavaj
TTITLE6=Vasar
TTITLE7=Biblijska tema
TTITLE8=Cudno drvo
TTITLE9=Trazi mene
TTITLE10=Moj svet
TTITLE11=Dixieband
TTITLE12=Knockin' on Heaven's Door
EXTD=
EXTT0=
EXTT1=
EXTT2=
EXTT3=
EXTT4=
EXTT5=
EXTT6=
EXTT7=
EXTT8=
EXTT9=
EXTT10=
EXTT11=
EXTT12=
PLAYORDER=
